<?xml version="1.0" encoding="UTF-8"?>
<svg width="151px" height="44px" viewBox="0 0 151 44" version="1.1" xmlns="http://www.w3.org/2000/svg" xmlns:xlink="http://www.w3.org/1999/xlink">
    <title>logo</title>
    <defs>
        <linearGradient x1="13.2653061%" y1="0%" x2="86.7346939%" y2="100%" id="linearGradient-1">
            <stop stop-color="#FCF8C8" offset="0%"></stop>
            <stop stop-color="#D3978D" offset="100%"></stop>
        </linearGradient>
    </defs>
    <g id="Page-1" stroke="none" stroke-width="1" fill="none" fill-rule="evenodd">
        <g id="Hero-Section" transform="translate(-25.000000, -25.000000)">
            <g id="Navbar" transform="translate(0.000000, 24.561404)">
                <g id="logo" transform="translate(25.789474, 1.228070)">
                    <g id="Group">
                        <path d="M9.00451864,0 L27.4040145,0 C31.8222923,0.00128200881 35.4029752,3.58404286 35.4016935,8.00232067 C35.4011654,9.82275095 34.7797821,11.5885623 33.6394709,13.0075964 C31.3863404,15.8148874 28.412163,18.6427642 24.7169387,21.4912269 C19.6921567,25.3645788 18.6671685,29.1998663 21.641974,32.9970893 C23.7456783,35.6822821 23.274216,39.5644414 20.5889838,41.6680954 C19.501946,42.5196984 18.1608791,42.9824561 16.7799813,42.9824561 L9.00451864,42.9824561 C4.58624068,42.98298 1.00409395,39.4016828 1.00356998,34.9834049 C1.00342432,33.7550997 1.28611972,32.5432563 1.82918638,31.4415247 C3.76623514,27.5152517 4.73475951,24.1984858 4.73475951,21.4912269 C4.73475951,18.783968 3.76623514,15.4672023 1.82918638,11.5409298 C-0.125704746,7.57866006 1.50092126,2.78162422 5.46291548,0.826174853 C6.56437092,0.282549542 7.7762139,-0.000145632501 9.00451864,0 Z" id="Rectangle-Copy" fill-opacity="0.24065778" fill="#FFFFFF"></path>
                        <path d="M26.9385212,0 L40.9352013,0 C45.3534793,0.000482783984 48.93481,3.5825961 48.9343272,8.00087407 C48.9341298,9.80791692 48.3221515,11.5616649 47.197384,12.9759855 C44.9581297,15.7936585 41.9978472,18.6320722 38.3165365,21.4912266 C33.3163308,25.374724 32.3067812,29.2199573 35.2878879,33.0269266 C37.384846,35.7048838 36.9139052,39.5757239 34.2359762,41.672718 C33.1522557,42.5213422 31.8154819,42.9824561 30.4390324,42.9824561 L22.5715999,42.9824561 C18.153322,42.9813792 14.572473,39.3987844 14.5735497,34.9805065 C14.5738718,33.6587389 14.9016896,32.3576446 15.5284856,31.1939447 C19.1115661,24.5282624 20.9031063,19.5368787 20.9031063,16.2197937 C20.9031063,14.6730526 20.5135695,13.0924469 19.7344957,11.4779766 C17.8142387,7.49880662 19.4827704,2.71618528 23.4617207,0.79547317 C24.5460271,0.272058645 25.7344933,0.000144004022 26.9385212,0 Z" id="Rectangle" fill="url(#linearGradient-1)"></path>
                    </g>
                    <text id="Focus" font-family=".AppleSystemUIFont" font-size="26" font-weight="normal" fill="#D8BD9E">
                        <tspan x="60.1754386" y="29.9912281">Focus</tspan>
                    </text>
                </g>
            </g>
        </g>
    </g>
</svg>